<svg xmlns="http://www.w3.org/2000/svg" fill="none" viewBox="0 0 171 213">
  <path fill="url(#a)" d="m10.322 131.404 31.262-2.735c2.43 4.449 4.019 9.264 4.474 14.469 1.19 13.591-11.165 25.744-25.295 34.265l19.409 31.811c10.732-7.349 22.196-13.014 32.327-13.9 6.657-.583 13.228 1.173 20.138 3.483 9.277 2.685 19.737 5.557 33.631 4.342 22.868-2.001 36.205-9.578 43.287-18.648l-22.835-37.63c-3.307 5.534-10.693 11.134-22.56 12.172-6.369.557-11.152-.773-16.275-2.656-5.677-1.543-11.379-3.375-19.773-2.64-3.763.329-9.212 1.388-13.692 3.529 9.36-6.356 15.824-19.159 14.812-30.726l-.177-2.024 31.841-2.786-2.429-27.76-40.524 3.545-1.7-2.765c-5-7.139-9.71-14.303-10.596-24.424-1.113-12.723 8.498-22.888 22.681-24.13 11.29-.987 22.002 4.778 27.407 16.543l37.657-26.314c-15.201-23.73-39.924-32.93-74.948-29.866-33.578 2.938-71.022 28.359-67.58 67.686.96 10.989 6.112 19.862 12.37 28.056l-15.34 1.342 2.428 27.761Z"/>
  <defs>
    <radialGradient id="a" cx="0" cy="0" r="1" gradientTransform="rotate(40 -34.732 4.63) scale(248.194 237.825)" gradientUnits="userSpaceOnUse">
      <stop stop-color="#00A4FF"/>
      <stop offset=".195" stop-color="#00A4FF" stop-opacity=".883"/>
      <stop offset="1" stop-color="#00A4FF" stop-opacity="0"/>
    </radialGradient>
  </defs>
</svg>
