<svg viewBox="0 0 48 36" height="36" width="48" xmlns="http://www.w3.org/2000/svg">
  <path d="M46 0H2a2 2 0 0 0-2 2v32c0 1.1.9 2 2 2h44a2 2 0 0 0 2-2V2a2 2 0 0 0-2-2z" fill="#002781"/>
  <path d="M48 2a2 2 0 0 0-2-2h-5.16L28 9.88V0h-8v9.88L7.16 0H2a2 2 0 0 0-2 2v2.59L12.24 14H0v8h12.24L0 31.41V34c0 1.1.9 2 2 2h5.16L20 26.12V36h8v-9.88L40.84 36H46a2 2 0 0 0 2-2v-2.59L35.76 22H48v-8H35.76L48 4.59V2z" fill="#E6E6E6"/>
  <path fill="#D10D24" d="M48 16H26V0h-4v16H0v4h22v16h4V20h22z"/>
  <path d="M47 .3L29.2 14h3.28L48 2.06V2c0-.73-.41-1.34-1-1.7zM32.48 22H29.2L47 35.7c.59-.36 1-.97 1-1.7v-.06L32.48 22zM15.52 22L0 33.94V34c0 .73.41 1.34 1 1.7L18.8 22h-3.28zM15.52 14h3.28L1 .3C.4.67 0 1.28 0 2v.06L15.52 14z" fill="#D10D24"/>
</svg>
